<svg xmlns="http://www.w3.org/2000/svg" width="60" height="60" viewBox="0 0 60 60"><defs><clipPath id="xnl3a"><path fill="#fff" d="M30 0c16.569 0 30 13.431 30 30 0 16.569-13.431 30-30 30C13.431 60 0 46.569 0 30 0 13.431 13.431 0 30 0z"/></clipPath></defs><g><g><g><path fill="#082458" d="M30 0c16.569 0 30 13.431 30 30 0 16.569-13.431 30-30 30C13.431 60 0 46.569 0 30 0 13.431 13.431 0 30 0z"/><path fill="none" stroke="#224485" stroke-miterlimit="20" stroke-width="2" d="M30 0c16.569 0 30 13.431 30 30v0c0 16.569-13.431 30-30 30h0C13.431 60 0 46.569 0 30v0C0 13.431 13.431 0 30 0z" clip-path="url(&quot;#xnl3a&quot;)"/></g><g><g><path fill="none" stroke="#fff" stroke-linecap="round" stroke-linejoin="round" stroke-miterlimit="20" stroke-width="2" d="M31.66 23.489v0l-6.485 6.486v0l6.486 6.486v0"/></g></g></g></g></svg>