<svg xmlns="http://www.w3.org/2000/svg" width="53" height="53" viewBox="0 0 53 53"><g><g><path fill="#082458" d="M0 26.5C0 11.864 11.864 0 26.5 0S53 11.864 53 26.5 41.136 53 26.5 53 0 41.136 0 26.5z"/></g><g><path fill="#eef3fa" d="M23.388 33.06s3.75 3.261 7.935 3.859c0 0 2.934.652 4.945-1.74 0 0 1.386-1.005.109-2.608l-3.152-3.097s-.761-.87-1.984-.11l-1.875 1.849s-5.163-2.663-7.228-7.31l1.44-1.44s1.44-1.277.028-2.717l-3.152-3.098s-1.114-.788-2.229.19c0 0-2.717 2.283-1.847 6.114 0 0 .081 4.022 7.01 10.108z"/></g></g></svg>