<svg xmlns="http://www.w3.org/2000/svg" width="240" height="164" viewBox="0 0 240 164"><g><g><g><path fill="#3de9af" d="M119.2 15.2V8.8h-6.4a.8.8 0 1 1 0-1.6h6.4V.8a.8.8 0 1 1 1.6 0v6.4h6.4a.8.8 0 1 1 0 1.6h-6.4v6.4a.8.8 0 1 1-1.6 0z"/></g><g><path fill="#3de9af" d="M175.2 15.2V8.8h-6.4a.8.8 0 1 1 0-1.6h6.4V.8a.8.8 0 1 1 1.6 0v6.4h6.4a.8.8 0 1 1 0 1.6h-6.4v6.4a.8.8 0 1 1-1.6 0z"/></g><g><path fill="#3de9af" d="M231.2 15.2V8.8h-6.4a.8.8 0 1 1 0-1.6h6.4V.8a.8.8 0 1 1 1.6 0v6.4h6.4a.8.8 0 1 1 0 1.6h-6.4v6.4a.8.8 0 1 1-1.6 0z"/></g><g><path fill="#3de9af" d="M7.2 52.2v-6.4H.8a.8.8 0 1 1 0-1.6h6.4v-6.4a.8.8 0 1 1 1.6 0v6.4h6.4a.8.8 0 1 1 0 1.6H8.8v6.4a.8.8 0 1 1-1.6 0z"/></g><g><path fill="#3de9af" d="M63.2 52.2v-6.4h-6.4a.8.8 0 1 1 0-1.6h6.4v-6.4a.8.8 0 1 1 1.6 0v6.4h6.4a.8.8 0 1 1 0 1.6h-6.4v6.4a.8.8 0 1 1-1.6 0z"/></g><g><path fill="#3de9af" d="M119.2 52.2v-6.4h-6.4a.8.8 0 1 1 0-1.6h6.4v-6.4a.8.8 0 1 1 1.6 0v6.4h6.4a.8.8 0 1 1 0 1.6h-6.4v6.4a.8.8 0 1 1-1.6 0z"/></g><g><path fill="#3de9af" d="M175.2 52.2v-6.4h-6.4a.8.8 0 1 1 0-1.6h6.4v-6.4a.8.8 0 1 1 1.6 0v6.4h6.4a.8.8 0 1 1 0 1.6h-6.4v6.4a.8.8 0 1 1-1.6 0z"/></g><g><path fill="#3de9af" d="M231.2 52.2v-6.4h-6.4a.8.8 0 1 1 0-1.6h6.4v-6.4a.8.8 0 1 1 1.6 0v6.4h6.4a.8.8 0 1 1 0 1.6h-6.4v6.4a.8.8 0 1 1-1.6 0z"/></g><g><path fill="#3de9af" d="M7.2 89.2v-6.4H.8a.8.8 0 1 1 0-1.6h6.4v-6.4a.8.8 0 1 1 1.6 0v6.4h6.4a.8.8 0 1 1 0 1.6H8.8v6.4a.8.8 0 1 1-1.6 0z"/></g><g><path fill="#3de9af" d="M63.2 89.2v-6.4h-6.4a.8.8 0 1 1 0-1.6h6.4v-6.4a.8.8 0 1 1 1.6 0v6.4h6.4a.8.8 0 1 1 0 1.6h-6.4v6.4a.8.8 0 1 1-1.6 0z"/></g><g><path fill="#3de9af" d="M119.2 89.2v-6.4h-6.4a.8.8 0 1 1 0-1.6h6.4v-6.4a.8.8 0 1 1 1.6 0v6.4h6.4a.8.8 0 1 1 0 1.6h-6.4v6.4a.8.8 0 1 1-1.6 0z"/></g><g><path fill="#3de9af" d="M175.2 89.2v-6.4h-6.4a.8.8 0 1 1 0-1.6h6.4v-6.4a.8.8 0 1 1 1.6 0v6.4h6.4a.8.8 0 1 1 0 1.6h-6.4v6.4a.8.8 0 1 1-1.6 0z"/></g><g><path fill="#3de9af" d="M231.2 89.2v-6.4h-6.4a.8.8 0 1 1 0-1.6h6.4v-6.4a.8.8 0 1 1 1.6 0v6.4h6.4a.8.8 0 1 1 0 1.6h-6.4v6.4a.8.8 0 1 1-1.6 0z"/></g><g><path fill="#3de9af" d="M7.2 126.2v-6.4H.8a.8.8 0 1 1 0-1.6h6.4v-6.4a.8.8 0 1 1 1.6 0v6.4h6.4a.8.8 0 1 1 0 1.6H8.8v6.4a.8.8 0 1 1-1.6 0z"/></g><g><path fill="#3de9af" d="M63.2 126.2v-6.4h-6.4a.8.8 0 1 1 0-1.6h6.4v-6.4a.8.8 0 1 1 1.6 0v6.4h6.4a.8.8 0 1 1 0 1.6h-6.4v6.4a.8.8 0 1 1-1.6 0z"/></g><g><path fill="#3de9af" d="M119.2 126.2v-6.4h-6.4a.8.8 0 1 1 0-1.6h6.4v-6.4a.8.8 0 1 1 1.6 0v6.4h6.4a.8.8 0 1 1 0 1.6h-6.4v6.4a.8.8 0 1 1-1.6 0z"/></g><g><path fill="#3de9af" d="M175.2 126.2v-6.4h-6.4a.8.8 0 1 1 0-1.6h6.4v-6.4a.8.8 0 1 1 1.6 0v6.4h6.4a.8.8 0 1 1 0 1.6h-6.4v6.4a.8.8 0 1 1-1.6 0z"/></g><g><path fill="#3de9af" d="M231.2 126.2v-6.4h-6.4a.8.8 0 1 1 0-1.6h6.4v-6.4a.8.8 0 1 1 1.6 0v6.4h6.4a.8.8 0 1 1 0 1.6h-6.4v6.4a.8.8 0 1 1-1.6 0z"/></g><g><path fill="#3de9af" d="M7.2 163.2v-6.4H.8a.8.8 0 1 1 0-1.6h6.4v-6.4a.8.8 0 1 1 1.6 0v6.4h6.4a.8.8 0 1 1 0 1.6H8.8v6.4a.8.8 0 1 1-1.6 0z"/></g><g><path fill="#3de9af" d="M63.2 163.2v-6.4h-6.4a.8.8 0 1 1 0-1.6h6.4v-6.4a.8.8 0 1 1 1.6 0v6.4h6.4a.8.8 0 1 1 0 1.6h-6.4v6.4a.8.8 0 1 1-1.6 0z"/></g><g><path fill="#3de9af" d="M119.2 163.2v-6.4h-6.4a.8.8 0 1 1 0-1.6h6.4v-6.4a.8.8 0 1 1 1.6 0v6.4h6.4a.8.8 0 1 1 0 1.6h-6.4v6.4a.8.8 0 1 1-1.6 0z"/></g><g><path fill="#3de9af" d="M175.2 163.2v-6.4h-6.4a.8.8 0 1 1 0-1.6h6.4v-6.4a.8.8 0 1 1 1.6 0v6.4h6.4a.8.8 0 1 1 0 1.6h-6.4v6.4a.8.8 0 1 1-1.6 0z"/></g><g><path fill="#3de9af" d="M231.2 163.2v-6.4h-6.4a.8.8 0 1 1 0-1.6h6.4v-6.4a.8.8 0 1 1 1.6 0v6.4h6.4a.8.8 0 1 1 0 1.6h-6.4v6.4a.8.8 0 1 1-1.6 0z"/></g></g></g></svg>