<svg xmlns="http://www.w3.org/2000/svg" width="100" height="16" viewBox="0 0 100 16"><g><g><g><path fill="#fec037" d="M16.432 6.554l-3.708 3.434.968 4.96a.548.548 0 0 1-.548.652.548.548 0 0 1-.274-.068l-4.385-2.467-4.429 2.453a.548.548 0 0 1-.803-.584l.981-4.957L.538 6.532a.548.548 0 0 1 .31-.945l5.017-.6L7.995.403c.089-.19.28-.313.49-.315.213 0 .406.125.496.318l2.13 4.588 5.017.61a.548.548 0 0 1 .304.949z"/></g><g><path fill="#fec037" d="M37.28 6.554l-3.707 3.434.967 4.96a.548.548 0 0 1-.548.652.548.548 0 0 1-.274-.068l-4.385-2.467-4.429 2.453a.548.548 0 0 1-.803-.584l.981-4.957-3.696-3.445a.548.548 0 0 1 .31-.945l5.017-.6 2.13-4.583c.089-.19.28-.313.49-.315.213 0 .407.125.496.318l2.13 4.588 5.017.61a.548.548 0 0 1 .304.949z"/></g><g><path fill="#fec037" d="M58.128 6.554l-3.707 3.434.967 4.96a.548.548 0 0 1-.548.652.548.548 0 0 1-.274-.068l-4.385-2.467-4.429 2.453a.548.548 0 0 1-.803-.584l.982-4.957-3.697-3.445a.548.548 0 0 1 .31-.945l5.017-.6 2.13-4.583c.089-.19.28-.313.49-.315.213 0 .407.125.496.318l2.13 4.588 5.017.61a.548.548 0 0 1 .304.949z"/></g><g><path fill="#fec037" d="M78.977 6.554l-3.708 3.434.967 4.96a.548.548 0 0 1-.548.652.548.548 0 0 1-.274-.068l-4.385-2.467-4.429 2.453a.548.548 0 0 1-.803-.584l.982-4.957-3.697-3.445a.548.548 0 0 1 .31-.945l5.017-.6L70.54.403c.089-.19.28-.313.49-.315.213 0 .407.125.496.318l2.13 4.588 5.017.61a.548.548 0 0 1 .305.949z"/></g><g><path fill="#fec037" d="M99.825 6.554l-3.708 3.434.967 4.96a.548.548 0 0 1-.548.652.548.548 0 0 1-.274-.068l-4.385-2.467-4.428 2.453a.548.548 0 0 1-.803-.584l.98-4.957-3.696-3.445a.548.548 0 0 1 .31-.945l5.017-.6 2.13-4.583c.09-.19.28-.313.49-.315.213 0 .407.125.496.318l2.13 4.588 5.017.61a.548.548 0 0 1 .305.949z"/></g></g></g></svg>