<svg xmlns="http://www.w3.org/2000/svg" width="33" height="33" viewBox="0 0 33 33"><g><g><g><g><path fill="#c42126" d="M.48 17.642h32.122z"/></g><g><path fill="#c42126" d="M2.153 8.835h28.774z"/></g><g><path fill="#c42126" d="M1.009 11.77H32.07z"/></g><g><path fill="#c42126" d="M7.341 29.383H25.74 7.34z"/></g><g><path fill="#c42126" d="M16.54 0c-.317 0-.631.011-.943.03h1.886A16.52 16.52 0 0 0 16.54 0z"/></g><g><path fill="#c42126" d="M.474 14.706h32.132z"/></g></g><g><path fill="#e7e7e7" d="M21.308 5.9h7.704a16.215 16.215 0 0 0-3.157-2.935h-5.784c.478.842.89 1.836 1.237 2.935z"/></g><g><path fill="#dc3027" d="M20.07 2.965h5.785A16.044 16.044 0 0 0 17.483.029h-.496c1.463.184 2.135 1.268 3.084 2.936z"/></g><g><path fill="#e7e7e7" d="M32.071 11.77a16.024 16.024 0 0 0-1.144-2.934h-8.862c.18.942.32 1.926.426 2.934z"/></g><g><path fill="#dc3027" d="M21.566 8.835h9.361A16.144 16.144 0 0 0 29.012 5.9h-8.177c.288.913.533 1.897.731 2.935z"/></g><g><path fill="#e7e7e7" d="M22.83 17.641h9.77c.047-.496.073-1 .073-1.508 0-.481-.025-.956-.067-1.427h-9.774c.032.976.032 1.96-.002 2.935z"/></g><g><path fill="#dc3027" d="M32.607 14.706a16.066 16.066 0 0 0-.536-2.935H22.08c.1.961.167 1.944.2 2.935z"/></g><g><path fill="#e7e7e7" d="M21.896 23.512h8.989c.48-.93.87-1.912 1.163-2.935h-9.717a34.736 34.736 0 0 1-.435 2.935z"/></g><g><path fill="#dc3027" d="M32.048 20.576c.271-.945.46-1.926.553-2.934H22.526a41.263 41.263 0 0 1-.205 2.934z"/></g><g><path fill="#e7e7e7" d="M25.74 29.382a16.227 16.227 0 0 0 3.204-2.934h-7.57c-.354 1.103-.774 2.095-1.261 2.934z"/></g><g><g><path fill="#dc3027" d="M21.09 26.447h7.854c.749-.9 1.4-1.885 1.94-2.935H21.83a25.533 25.533 0 0 1-.74 2.935z"/></g><g><path fill="#dc3027" d="M15.955 32.254l-.097-.003"/></g><g><path fill="#dc3027" d="M16.54 32.266c3.42 0 6.59-1.068 9.2-2.883H19.9c-1.036 1.786-1.72 2.883-3.36 2.883z"/></g></g><g><path fill="#c42126" d="M16.54 32.266c-.196 0-.39-.005-.585-.012"/></g><g><path fill="#f3f4f5" d="M20.605 2.965H7.225A16.216 16.216 0 0 0 4.068 5.9h17.774c-.347-1.1-.759-2.093-1.237-2.935z"/></g><g><path fill="#e73625" d="M7.225 2.965h13.38C19.656 1.297 18.45.213 16.987.029h-1.39c-3.11.18-5.98 1.241-8.372 2.936z"/></g><g><path fill="#f3f4f5" d="M1.009 11.77h21.99a35.188 35.188 0 0 0-.426-2.934H2.153c-.473.93-.857 1.911-1.144 2.934z"/></g><g><path fill="#e73625" d="M4.068 5.9a16.153 16.153 0 0 0-1.915 2.935h20.42a25.868 25.868 0 0 0-.73-2.935z"/></g><g><path fill="#f3f4f5" d="M.407 16.133c0 .509.027 1.012.073 1.508h22.717a43.87 43.87 0 0 0 .002-2.935H.474c-.042.47-.067.946-.067 1.427z"/></g><g><path fill="#e73625" d="M.474 14.706h22.725a41.445 41.445 0 0 0-.2-2.935H1.01a16.048 16.048 0 0 0-.535 2.935z"/></g><g><path fill="#f3f4f5" d="M22.992 20.577H1.032a16.015 16.015 0 0 0 1.163 2.935h20.362c.182-.941.327-1.926.435-2.935z"/></g><g><path fill="#e73625" d="M1.032 20.576h21.96c.102-.96.17-1.943.205-2.934H.48c.093 1.008.282 1.989.552 2.934z"/></g><g><path fill="#f3f4f5" d="M7.34 29.382h13.216c.487-.839.907-1.831 1.26-2.934H4.137a16.22 16.22 0 0 0 3.204 2.934z"/></g><g><g><path fill="#e73625" d="M2.196 23.512a16.16 16.16 0 0 0 1.94 2.935h17.68c.293-.911.54-1.896.741-2.935z"/></g><g><path fill="#e73625" d="M15.857 32.25l.098.004c.194.007.39.012.585.012 1.64 0 2.978-1.097 4.015-2.883H7.341a16.048 16.048 0 0 0 8.516 2.868z"/></g></g><g><path fill="#283991" d="M16.206.008C7.94.177 1.201 6.56.476 14.68h15.73V.01z"/></g><g><g><path fill="#efefef" d="M3.635 9.14l.246.757h.796l-.644.468.246.758-.644-.469-.643.469.245-.758-.644-.468h.796z"/></g><g><path fill="#efefef" d="M3.635 11.814l.246.757h.796l-.644.468.246.758-.644-.468-.643.468.245-.758-.644-.468h.796z"/></g><g><path fill="#efefef" d="M6.31 5.129l.245.757h.796l-.644.468.246.757-.644-.468-.644.468.246-.757-.644-.468h.796z"/></g><g><path fill="#efefef" d="M6.31 7.803l.245.757h.796l-.644.468.246.757-.644-.467-.644.467.246-.757-.644-.468h.796z"/></g><g><path fill="#efefef" d="M6.31 10.477l.245.758h.796l-.644.467.246.757-.644-.468-.644.468.246-.757-.644-.467h.796z"/></g><g><path fill="#efefef" d="M1.605 12.46l-.246-.758.644-.468h-.796l-.018-.055c-.087.27-.166.544-.239.82l.011-.008z"/></g><g><path fill="#efefef" d="M2.992 8.448l.643-.468.644.468-.246-.757.644-.468h-.796l-.246-.757-.246.757h-.293c-.055.083-.107.166-.16.25l.301.218z"/></g><g><path fill="#efefef" d="M6.31 3.97l.643.467-.246-.757.644-.468h-.46c-.39.292-.767.6-1.13.927l-.096.298z"/></g><g><path fill="#efefef" d="M8.34 3.1l.644-.468.643.468-.246-.757.644-.468H9.23l-.033-.102c-.27.138-.537.281-.798.434l.187.136z"/></g><g><path fill="#efefef" d="M8.984 3.792l.245.757h.796l-.644.468.246.757-.643-.468-.644.468.245-.757-.644-.468h.796z"/></g><g><path fill="#efefef" d="M8.984 6.466l.245.757h.796l-.644.468.246.757-.643-.468-.644.468.245-.757-.644-.468h.796z"/></g><g><path fill="#efefef" d="M8.984 9.14l.245.757h.796l-.644.468.246.758-.643-.469-.644.469.245-.758-.644-.468h.796z"/></g><g><path fill="#efefef" d="M8.984 11.814l.245.757h.796l-.644.468.246.758-.643-.468-.644.468.245-.758-.644-.468h.796z"/></g><g><path fill="#efefef" d="M11.658 2.455l.246.757h.796l-.644.468.245.757-.643-.468-.644.468.246-.757-.645-.468h.797z"/></g><g><path fill="#efefef" d="M11.658 5.129l.246.757h.796l-.644.468.245.757-.643-.468-.644.468.246-.757-.645-.468h.797z"/></g><g><path fill="#efefef" d="M11.658 7.803l.246.757h.796l-.644.468.245.757-.643-.467-.644.467.246-.757-.645-.468h.797z"/></g><g><path fill="#efefef" d="M11.658 10.477l.246.758h.796l-.644.467.245.757-.643-.468-.644.468.246-.757-.645-.467h.797z"/></g><g><path fill="#efefef" d="M14.332 1.118l.246.757h.796l-.644.468.246.757-.644-.468-.644.468.246-.757-.644-.468h.796z"/></g><g><path fill="#efefef" d="M14.332 3.792l.246.757h.796l-.644.468.246.757-.644-.468-.644.468.246-.757-.644-.468h.796z"/></g><g><path fill="#efefef" d="M14.332 6.466l.246.757h.796l-.644.468.246.757-.644-.468-.644.468.246-.757-.644-.468h.796z"/></g><g><path fill="#efefef" d="M14.332 9.14l.246.757h.796l-.644.468.246.758-.644-.469-.644.469.246-.758-.644-.468h.796z"/></g><g><path fill="#efefef" d="M14.332 11.814l.246.757h.796l-.644.468.246.758-.644-.468-.644.468.246-.758-.644-.468h.796z"/></g></g></g></g></svg>