<svg xmlns="http://www.w3.org/2000/svg" width="178" height="48" viewBox="0 0 178 48"><g><g><g><path fill="#f5f5fb" d="M56.422 21.936l1.716-4.317 1.729 4.317zm.336-10.054l-.29.704c-1.119 2.72-2.225 5.448-3.331 8.176l-.023.055c-1.117 2.756-2.235 5.51-3.365 8.259l-.645 1.567h3.85l2.077-5.232h6.212c.23.569.455 1.14.68 1.71.375.949.75 1.894 1.138 2.824l.292.698h3.801L59.54 11.882z"/></g><g><path fill="#f5f5fb" d="M74.99 19.18c.81 0 1.636.122 2.402.355v6.356c0 1.245-1.404 1.507-2.583 1.507-1.608 0-3.096-.512-3.096-4.225 0-2.874.919-3.994 3.276-3.994zm2.402-3.216a12.162 12.162 0 0 0-2.403-.235c-3.115 0-6.829 1.292-6.829 7.444 0 6.678 4.166 7.675 6.65 7.675 5.815 0 6.11-4.172 6.11-5.008V11.138h-3.528z"/></g><g><path fill="#f5f5fb" d="M90.308 27.372c-.844 0-.993-.14-.993-.942v-7.097h3.59v-3.399h-3.59v-3.513h-3.552v3.513h-2v3.399h2v7.148c0 2.759 1.6 4.341 4.392 4.341.63 0 1.27-.088 1.956-.268l.846-.223v-3.684l-1.513.533c-.37.13-.731.192-1.136.192z"/></g><g><path fill="#f5f5fb" d="M96.616 17l-.688.296v13.347h3.527v-10.91c1.233-.31 2.375-.474 3.485-.503l1.106-.029v-3.483l-1.146.01c-3.15.03-5.606.981-6.284 1.273z"/></g><g><path fill="#f5f5fb" d="M112.15 27.398c-2.437 0-3.43-1.195-3.43-4.122 0-2.928.993-4.122 3.43-4.122 2.436 0 3.429 1.194 3.429 4.122 0 2.927-.993 4.122-3.43 4.122zm0-11.694c-2.6 0-6.958.983-6.958 7.572 0 6.588 4.359 7.572 6.957 7.572s6.957-.984 6.957-7.572c0-6.59-4.359-7.572-6.957-7.572z"/></g><g><path fill="#f5f5fb" d="M128.312 27.398c-2.436 0-3.43-1.195-3.43-4.122 0-2.928.994-4.122 3.43-4.122s3.43 1.194 3.43 4.122c0 2.927-.994 4.122-3.43 4.122zm0-11.694c-2.598 0-6.956.983-6.956 7.572 0 6.588 4.358 7.572 6.956 7.572 2.598 0 6.957-.984 6.957-7.572 0-6.59-4.359-7.572-6.957-7.572z"/></g><g><path fill="#f5f5fb" d="M141.635 20.66c0-.943.965-1.506 2.583-1.506 1.531 0 3.097.501 3.097 4.224 0 3.685-1.69 3.994-3.276 3.994-.844 0-1.67-.12-2.404-.345zm2.583-4.956c-5.815 0-6.11 4.171-6.11 5.007v14.65h3.527v-4.765c.791.167 1.598.252 2.404.252 4.403 0 6.829-2.644 6.829-7.444 0-6.95-4.65-7.7-6.65-7.7z"/></g><g><path fill="#f5f5fb" d="M170.07 17l-.687.296v13.347h3.527v-10.91c1.232-.31 2.374-.474 3.484-.503l1.106-.029v-3.483l-1.146.01c-3.148.03-5.606.981-6.284 1.273z"/></g><g><g><path fill="#f5f5fb" d="M87.795 46.928v-6.951h.844v6.951z"/><path fill="none" stroke="#f5f5fb" stroke-miterlimit="20" stroke-width=".3" d="M87.795 46.928v0-6.951 0h.844v6.951z"/></g><g><path fill="#f5f5fb" d="M92.541 41.509a5.001 5.001 0 0 0-2.218.554l-.09.048v4.817h.844v-4.299a4.127 4.127 0 0 1 1.413-.266c1.152 0 1.3.613 1.3 1.146v3.419h.854v-3.419c0-1.271-.766-2-2.103-2z"/><path fill="none" stroke="#f5f5fb" stroke-miterlimit="20" stroke-width=".3" d="M92.541 41.509a5.001 5.001 0 0 0-2.218.554l-.09.048v4.817h.844v0-4.299a4.127 4.127 0 0 1 1.413-.266c1.152 0 1.3.613 1.3 1.146v3.419h.854v0-3.419c0-1.271-.766-2-2.103-2z"/></g><g><path fill="#f5f5fb" d="M97.746 43.762c-.647-.178-1.044-.308-1.044-.695 0-.63.666-.724 1.064-.724.411 0 .822.098 1.22.292l.245.119v-.889l-.103-.044a3.538 3.538 0 0 0-1.414-.312c-1.378 0-1.866.84-1.866 1.558 0 1.046.902 1.29 1.626 1.487.745.2 1.201.353 1.201.908 0 .653-.877.704-1.146.704-.499 0-.991-.125-1.463-.371l-.25-.13v.92l.095.048c.5.25 1.052.377 1.638.377 1.222 0 1.98-.593 1.98-1.548 0-1.208-.989-1.48-1.783-1.7z"/><path fill="none" stroke="#f5f5fb" stroke-miterlimit="20" stroke-width=".3" d="M97.746 43.762c-.647-.178-1.044-.308-1.044-.695 0-.63.666-.724 1.064-.724.411 0 .822.098 1.22.292l.245.119v0-.889 0l-.103-.044a3.538 3.538 0 0 0-1.414-.312c-1.378 0-1.866.84-1.866 1.558 0 1.046.902 1.29 1.626 1.487.745.2 1.201.353 1.201.908 0 .653-.877.704-1.146.704-.499 0-.991-.125-1.463-.371l-.25-.13v.92l.095.048c.5.25 1.052.377 1.638.377 1.222 0 1.98-.593 1.98-1.548 0-1.208-.989-1.48-1.783-1.7z"/></g><g><path fill="#f5f5fb" d="M102.59 46.187c-.492 0-.684-.186-.684-.663v-3.13h1.44v-.792h-1.44v-1.409h-.854v1.409h-.802v.792h.802v3.15c0 .665.256 1.456 1.476 1.456.229 0 .46-.032.711-.098l.127-.033v-.855l-.227.079a1.598 1.598 0 0 1-.55.094z"/><path fill="none" stroke="#f5f5fb" stroke-miterlimit="20" stroke-width=".3" d="M102.59 46.187c-.492 0-.684-.186-.684-.663v-3.13 0h1.44v0-.792 0h-1.44v0-1.409 0h-.854v1.409h-.802v.792h.802v3.15c0 .665.256 1.456 1.476 1.456.229 0 .46-.032.711-.098l.127-.033v0-.855 0l-.227.079a1.598 1.598 0 0 1-.55.094z"/></g><g><path fill="#f5f5fb" d="M106.693 44.307c.506 0 .88.04 1.094.069v.922c0 .743-.73.899-1.34.899-.525 0-1.404-.12-1.404-.92 0-.875 1.154-.97 1.65-.97zm-.36-2.788c-.67 0-1.23.153-1.504.245l-.116.04v.845l.22-.067c.177-.054.717-.219 1.369-.219.945 0 1.405.372 1.467 1.198a6.582 6.582 0 0 0-1.015-.068c-.6 0-2.555.129-2.555 1.784 0 1.27 1.16 1.723 2.247 1.723.513 0 2.185-.123 2.185-1.702v-1.522c0-1.497-.773-2.257-2.298-2.257z"/><path fill="none" stroke="#f5f5fb" stroke-miterlimit="20" stroke-width=".3" d="M106.693 44.307c.506 0 .88.04 1.094.069v.922c0 .743-.73.899-1.34.899-.525 0-1.404-.12-1.404-.92 0-.875 1.154-.97 1.65-.97zm-.36-2.788c-.67 0-1.23.153-1.504.245l-.116.04v.845l.22-.067c.177-.054.717-.219 1.369-.219.945 0 1.405.372 1.467 1.198a6.582 6.582 0 0 0-1.015-.068c-.6 0-2.555.129-2.555 1.784 0 1.27 1.16 1.723 2.247 1.723.513 0 2.185-.123 2.185-1.702v-1.522c0-1.497-.773-2.257-2.298-2.257z"/></g><g><path fill="#f5f5fb" d="M112.339 41.509a5 5 0 0 0-2.219.554l-.09.048v4.817h.844v-4.299a4.126 4.126 0 0 1 1.413-.266c1.152 0 1.3.613 1.3 1.146v3.419h.854v-3.419c0-1.271-.766-2-2.102-2z"/><path fill="none" stroke="#f5f5fb" stroke-miterlimit="20" stroke-width=".3" d="M112.339 41.509a5 5 0 0 0-2.219.554l-.09.048v4.817h.844v0-4.299a4.126 4.126 0 0 1 1.413-.266c1.152 0 1.3.613 1.3 1.146v3.419h.854v0-3.419c0-1.271-.766-2-2.102-2z"/></g><g><path fill="#f5f5fb" d="M117.676 46.187c-.491 0-.683-.186-.683-.663v-3.13h1.44v-.792h-1.44v-1.409h-.854v1.409h-.802v.792h.802v3.15c0 .665.256 1.456 1.476 1.456.229 0 .46-.032.711-.098l.127-.033v-.855l-.227.079a1.598 1.598 0 0 1-.55.094z"/><path fill="none" stroke="#f5f5fb" stroke-miterlimit="20" stroke-width=".3" d="M117.676 46.187c-.491 0-.683-.186-.683-.663v-3.13 0h1.44v0-.792 0h-1.44v0-1.409 0h-.854v1.409h-.802v.792h.802v3.15c0 .665.256 1.456 1.476 1.456.229 0 .46-.032.711-.098l.127-.033v0-.855 0l-.227.079a1.598 1.598 0 0 1-.55.094z"/></g><g><path fill="#f5f5fb" d="M125.358 44.307c.506 0 .881.04 1.095.069v.922c0 .743-.73.899-1.34.899-.525 0-1.404-.12-1.404-.92 0-.875 1.153-.97 1.65-.97zM125 41.519c-.67 0-1.23.153-1.504.245l-.116.04v.845l.22-.067c.177-.054.717-.219 1.369-.219.945 0 1.405.372 1.467 1.198a6.584 6.584 0 0 0-1.015-.068c-.6 0-2.555.129-2.555 1.784 0 1.27 1.16 1.723 2.247 1.723.513 0 2.185-.123 2.185-1.702v-1.522c0-1.497-.773-2.257-2.298-2.257z"/><path fill="none" stroke="#f5f5fb" stroke-miterlimit="20" stroke-width=".3" d="M125.358 44.307c.506 0 .881.04 1.095.069v.922c0 .743-.73.899-1.34.899-.525 0-1.404-.12-1.404-.92 0-.875 1.153-.97 1.65-.97zM125 41.519c-.67 0-1.23.153-1.504.245l-.116.04v.845l.22-.067c.177-.054.717-.219 1.369-.219.945 0 1.405.372 1.467 1.198a6.584 6.584 0 0 0-1.015-.068c-.6 0-2.555.129-2.555 1.784 0 1.27 1.16 1.723 2.247 1.723.513 0 2.185-.123 2.185-1.702v-1.522c0-1.497-.773-2.257-2.298-2.257z"/></g><g><path fill="#f5f5fb" d="M130.973 42.333c.43 0 .859.077 1.249.223v2.753c0 .564-.482.888-1.321.888-.655 0-1.526-.205-1.526-1.978 0-1.305.493-1.886 1.598-1.886zm1.249-.641a4.456 4.456 0 0 0-1.249-.173c-1.119 0-2.452.468-2.452 2.7 0 2.429 1.491 2.791 2.38 2.791 2.061 0 2.165-1.435 2.165-1.722V39.68h-.844z"/><path fill="none" stroke="#f5f5fb" stroke-miterlimit="20" stroke-width=".3" d="M130.973 42.333c.43 0 .859.077 1.249.223v2.753c0 .564-.482.888-1.321.888-.655 0-1.526-.205-1.526-1.978 0-1.305.493-1.886 1.598-1.886zm1.249-.641a4.456 4.456 0 0 0-1.249-.173c-1.119 0-2.452.468-2.452 2.7 0 2.429 1.491 2.791 2.38 2.791 2.061 0 2.165-1.435 2.165-1.722V39.68h-.844z"/></g><g><path fill="#f5f5fb" d="M139.697 46.197c-.832 0-1.31-.324-1.31-.888v-2.754a3.547 3.547 0 0 1 1.238-.222c1.128 0 1.609.564 1.609 1.886 0 1.773-.877 1.978-1.537 1.978zm-.072-4.688c-.41 0-.842.064-1.238.182v-2.022h-.854v5.619c0 .287.104 1.722 2.164 1.722.893 0 2.391-.362 2.391-2.791 0-1.747-.875-2.71-2.463-2.71z"/><path fill="none" stroke="#f5f5fb" stroke-miterlimit="20" stroke-width=".3" d="M139.697 46.197c-.832 0-1.31-.324-1.31-.888v-2.754a3.547 3.547 0 0 1 1.238-.222c1.128 0 1.609.564 1.609 1.886 0 1.773-.877 1.978-1.537 1.978zm-.072-4.688c-.41 0-.842.064-1.238.182v-2.022h-.854v5.619c0 .287.104 1.722 2.164 1.722.893 0 2.391-.362 2.391-2.791 0-1.747-.875-2.71-2.463-2.71z"/></g><g><path fill="#f5f5fb" d="M143.477 46.928v-7.249h.855v7.249z"/><path fill="none" stroke="#f5f5fb" stroke-miterlimit="20" stroke-width=".3" d="M143.477 46.928v0-7.249 0h.855v7.249z"/></g><g><path fill="#f5f5fb" d="M148.182 46.197c-1.132 0-1.66-.616-1.66-1.937 0-1.322.528-1.938 1.66-1.938 1.148 0 1.66.598 1.66 1.938 0 1.34-.512 1.937-1.66 1.937zm0-4.688c-.935 0-2.504.357-2.504 2.75 0 2.394 1.57 2.751 2.504 2.751.935 0 2.504-.357 2.504-2.75 0-2.394-1.569-2.751-2.504-2.751z"/><path fill="none" stroke="#f5f5fb" stroke-miterlimit="20" stroke-width=".3" d="M148.182 46.197c-1.132 0-1.66-.616-1.66-1.937 0-1.322.528-1.938 1.66-1.938 1.148 0 1.66.598 1.66 1.938 0 1.34-.512 1.937-1.66 1.937zm0-4.688c-.935 0-2.504.357-2.504 2.75 0 2.394 1.57 2.751 2.504 2.751.935 0 2.504-.357 2.504-2.75 0-2.394-1.569-2.751-2.504-2.751z"/></g><g><path fill="#f5f5fb" d="M154.27 41.509c-.935 0-2.504.357-2.504 2.75 0 2.274 1.362 2.751 2.504 2.751.513 0 1.021-.093 1.51-.278l.11-.042v-.86l-.233.091a3.664 3.664 0 0 1-1.335.255c-1.184 0-1.712-.591-1.712-1.916 0-1.326.528-1.917 1.712-1.917.423 0 .886.088 1.339.256l.229.086v-.859l-.113-.04a4.491 4.491 0 0 0-1.507-.277z"/><path fill="none" stroke="#f5f5fb" stroke-miterlimit="20" stroke-width=".3" d="M154.27 41.509c-.935 0-2.504.357-2.504 2.75 0 2.274 1.362 2.751 2.504 2.751.513 0 1.021-.093 1.51-.278l.11-.042v0-.86 0l-.233.091a3.664 3.664 0 0 1-1.335.255c-1.184 0-1.712-.591-1.712-1.916 0-1.326.528-1.917 1.712-1.917.423 0 .886.088 1.339.256l.229.086v0-.859 0l-.113-.04a4.491 4.491 0 0 0-1.507-.277z"/></g><g><path fill="#f5f5fb" d="M161.257 41.602H160.1l-2.244 2.4V39.68H157v7.25h.855V45.22l.535-.573 1.993 2.28h1.133l-2.553-2.89z"/><path fill="none" stroke="#f5f5fb" stroke-miterlimit="20" stroke-width=".3" d="M161.257 41.602v0H160.1v0l-2.244 2.4v0-4.323 0H157v7.25h.855v0-1.708 0l.535-.573v0l1.993 2.28v0h1.133v0l-2.553-2.89v0z"/></g><g><path fill="#f5f5fb" d="M162.587 43.935c.092-1.057.59-1.592 1.485-1.592 1.228 0 1.442 1.108 1.478 1.592zm1.515-2.416c-2.219 0-2.391 2.177-2.391 2.844 0 2.295 1.588 2.637 2.535 2.637.638 0 1.288-.125 1.738-.335l.097-.045v-.92l-.252.138c-.374.206-.95.328-1.542.328-.97 0-1.5-.39-1.632-1.233a.957.957 0 0 1-.059-.205h3.644l.17.014v-.17c.003-.02.01-.08.01-.281 0-.65-.167-2.772-2.318-2.772z"/><path fill="none" stroke="#f5f5fb" stroke-miterlimit="20" stroke-width=".3" d="M162.587 43.935c.092-1.057.59-1.592 1.485-1.592 1.228 0 1.442 1.108 1.478 1.592zm1.515-2.416c-2.219 0-2.391 2.177-2.391 2.844 0 2.295 1.588 2.637 2.535 2.637.638 0 1.288-.125 1.738-.335l.097-.045v-.92l-.252.138c-.374.206-.95.328-1.542.328-.97 0-1.5-.39-1.632-1.233a.957.957 0 0 1-.059-.205h3.644l.17.014v-.17c.003-.02.01-.08.01-.281 0-.65-.167-2.772-2.318-2.772z"/></g><g><path fill="#f5f5fb" d="M167.769 42.006l-.103.044v4.878h.844V42.62c.413-.114 1-.249 1.675-.266l.165-.005v-.832l-.172.002a6.556 6.556 0 0 0-2.409.487z"/><path fill="none" stroke="#f5f5fb" stroke-miterlimit="20" stroke-width=".3" d="M167.769 42.006v0l-.103.044v4.878h.844v0-4.308c.413-.114 1-.249 1.675-.266l.165-.005v0-.832 0l-.172.002a6.556 6.556 0 0 0-2.409.487z"/></g><g><path fill="#f5f5fb" d="M172.591 45.232l.055-5.255h-.848l.044 5.255z"/><path fill="none" stroke="#f5f5fb" stroke-miterlimit="20" stroke-width=".3" d="M172.591 45.232v0l.055-5.255v0h-.848v0l.044 5.255v0z"/></g><g><path fill="#f5f5fb" d="M171.769 46.928v-1.152h.906v1.152z"/><path fill="none" stroke="#f5f5fb" stroke-miterlimit="20" stroke-width=".3" d="M171.769 46.928v0-1.152 0h.906v1.152z"/></g></g><g><path fill="#f5f5fb" d="M159.997 19.205c1.905 0 2.62 1.319 2.874 2.55h-5.762c.339-1.737 1.263-2.55 2.888-2.55zm.538 8.115c-2.007 0-3.008-.65-3.305-2.166l6.852-.001h2.458l-.004-1.01c.01-.083.033-.254.033-.79 0-3.686-1.707-7.624-6.495-7.624-4.922 0-6.675 4.03-6.675 7.803 0 6.343 4.406 7.29 7.033 7.29 1.42 0 2.864-.24 4.008-.65l-1.695-3.107a9.453 9.453 0 0 1-2.21.255z"/></g></g><g><g><path fill="#5279ff" d="M7.51 22.237c0-6.637 5.38-12.018 12.018-12.018h.01c.652.001 1.277-.258 1.738-.719l3.043-3.043a16.596 16.596 0 0 0-7.25-.53C9.808 6.99 4.061 12.898 3.165 20.183a16.497 16.497 0 0 0 .888 7.745l3.64-3.64a11.914 11.914 0 0 1-.183-2.05z"/></g><g><path fill="#5279ff" d="M31.545 22.227v.01c0 6.637-5.38 12.017-12.017 12.017-.7 0-1.384-.066-2.05-.182l-3.64 3.639a16.483 16.483 0 0 0 7.744.888c7.284-.895 13.192-6.641 14.254-13.903.373-2.547.154-5-.529-7.25l-3.042 3.043c-.461.46-.72 1.086-.72 1.738z"/></g><g><path fill="#5279ff" d="M11.034 29.277L33.33 6.98a4.471 4.471 0 0 0 0-6.324L8.084 25.903l-3.44 3.44a16.557 16.557 0 0 0 7.779 7.777l3.439-3.44L34.864 14.68a4.472 4.472 0 0 0 0-6.324L12.487 30.73a1.028 1.028 0 0 1-1.453-1.454z"/></g><g><path fill="#5279ff" d="M4.404 36.345a.648.648 0 0 1-.914-.914l.252-.252a.647.647 0 0 1 .914.914zm2.203 1.7l-.252.251a.646.646 0 1 1-.913-.914l.251-.251a.646.646 0 1 1 .914.913zM.61 35.026a.577.577 0 0 0 0 .816l2.084 2.084 1.144 1.145 2.084 2.084c.226.225.59.225.816 0l3.309-3.31.263-.263a18.02 18.02 0 0 1-6.128-6.128z"/></g></g></g></svg>