<svg xmlns="http://www.w3.org/2000/svg" width="50" height="50" viewBox="0 0 50 50"><g><g><g><path fill="#0173b2" d="M25 50C11.193 50 0 38.807 0 25S11.193 0 25 0s25 11.193 25 25-11.193 25-25 25z"/></g><g><g><path fill="#fff" d="M33.728 32.108h.004V25.98c0-2.996-.645-5.305-4.148-5.305-1.684 0-2.815.924-3.276 1.8h-.049v-1.52h-3.322v11.151h3.46v-5.522c0-1.453.275-2.86 2.075-2.86 1.774 0 1.8 1.66 1.8 2.954v5.429z"/></g><g><path fill="#fff" d="M17.305 20.956h3.463v11.152h-3.463z"/></g><g><path fill="#fff" d="M19.035 15.405a2.006 2.006 0 0 0-2.006 2.006c0 1.107.899 2.024 2.006 2.024 1.107 0 2.006-.917 2.006-2.024 0-1.108-.9-2.006-2.006-2.006z"/></g></g></g></g></svg>