<svg xmlns="http://www.w3.org/2000/svg" width="50" height="50" viewBox="0 0 50 50"><g><g><g><path fill="#d32f2f" d="M25 50C11.193 50 0 38.807 0 25S11.193 0 25 0s25 11.193 25 25-11.193 25-25 25z"/></g><g><path fill="#fff" d="M25.014 15.261c-5.339.001-8.177 3.422-8.177 7.152 0 1.73.967 3.887 2.514 4.571.442.2.383-.044.763-1.496a.345.345 0 0 0-.083-.339c-2.212-2.559-.431-7.82 4.668-7.82 7.38 0 6 10.212 1.284 10.212-1.216 0-2.122-.954-1.835-2.135.347-1.407 1.027-2.919 1.027-3.932 0-2.555-3.806-2.176-3.806 1.209 0 1.046.37 1.752.37 1.752s-1.225 4.947-1.452 5.872c-.385 1.564.052 4.097.09 4.316.024.12.158.158.234.059.12-.158 1.601-2.27 2.016-3.797.15-.555.77-2.812.77-2.812.408.737 1.585 1.354 2.839 1.354 3.73 0 6.426-3.279 6.426-7.347-.013-3.9-3.351-6.819-7.648-6.819z"/></g></g></g></svg>