<svg xmlns="http://www.w3.org/2000/svg" width="50" height="50" viewBox="0 0 50 50"><g><g><g><path fill="#03a9f4" d="M25 50C11.193 50 0 38.807 0 25S11.193 0 25 0s25 11.193 25 25-11.193 25-25 25z"/></g><g><g><g><path fill="#fff" d="M34.277 18.622a8.707 8.707 0 0 1-2.406.66 4.153 4.153 0 0 0 1.837-2.31 8.346 8.346 0 0 1-2.648 1.012 4.175 4.175 0 0 0-7.224 2.856c0 .33.028.649.097.952-3.472-.17-6.544-1.834-8.608-4.368a4.204 4.204 0 0 0-.572 2.11c0 1.447.745 2.729 1.855 3.471a4.124 4.124 0 0 1-1.887-.514v.046a4.195 4.195 0 0 0 3.346 4.103c-.34.093-.71.137-1.095.137-.267 0-.537-.015-.79-.07.54 1.653 2.076 2.869 3.902 2.908a8.391 8.391 0 0 1-5.178 1.781c-.342 0-.67-.015-1-.057a11.757 11.757 0 0 0 6.407 1.874c7.685 0 11.886-6.366 11.886-11.883 0-.185-.006-.363-.015-.54a8.331 8.331 0 0 0 2.093-2.168z"/></g></g></g></g></g></svg>