<svg xmlns="http://www.w3.org/2000/svg" width="130" height="25" viewBox="0 0 130 25"><g><g><g><g><path fill="#232f3e" d="M7.913 8.133c0 .988.023 1.812-.474 2.694-.404.714-1.044 1.154-1.758 1.154-.972 0-1.54-.74-1.54-1.84 0-2.16 1.938-2.554 3.772-2.554zm2.578 6.188a98.512 98.512 0 0 1 1.944-1.684c.198-.169.162-.45 0-.674-.465-.64-.959-1.16-.959-2.35v-3.95c0-1.673.11-3.213-1.122-4.367C9.384.362 7.772.034 6.537.034c-2.414 0-5.108.9-5.672 3.882a.45.45 0 0 0 .377.53l2.439.267a.532.532 0 0 0 .449-.467c.21-1.026 1.073-1.522 2.04-1.522.526 0 1.114.19 1.424.658.355.523.308 1.237.308 1.84v.329c-1.47.166-3.393.276-4.77.88-1.57.687-2.694 2.086-2.694 4.145 0 2.636 1.662 3.954 3.797 3.954 1.803 0 2.789-.425 4.183-1.844.458.667.611.99 1.453 1.691a.523.523 0 0 0 .6-.06z"/></g><g><path fill="#232f3e" d="M17.418 14.218h-2.535a.476.476 0 0 1-.45-.43V.767A.48.48 0 0 1 14.918.3h2.365a.476.476 0 0 1 .449.45V2.45h.047C18.394.804 19.555.038 21.118.038c1.562 0 2.58.766 3.291 2.412a3.745 3.745 0 0 1 6.451-1c.806 1.096.64 2.695.64 4.083v8.215a.478.478 0 0 1-.49.47h-2.534a.474.474 0 0 1-.45-.467V6.848c0-.547.048-1.917-.071-2.438-.189-.876-.757-1.123-1.491-1.123-.673.02-1.27.44-1.516 1.067-.26.66-.238 1.753-.238 2.494v6.9a.478.478 0 0 1-.487.47h-2.542a.476.476 0 0 1-.449-.467V6.848c0-1.452.225-3.592-1.572-3.592-1.796 0-1.75 2.081-1.75 3.592v6.9a.478.478 0 0 1-.49.47"/></g><g><path fill="#232f3e" d="M40.695 10.816c-.402.712-1.044 1.152-1.756 1.152-.972 0-1.54-.741-1.54-1.84 0-2.161 1.937-2.552 3.772-2.552v.548c0 .99.018 1.812-.476 2.692zm4.984 1.138c-.465-.64-.959-1.16-.959-2.348V5.654c0-1.675.12-3.213-1.122-4.367C42.626.353 41.013.025 39.78.025c-2.414 0-5.108.898-5.674 3.882a.449.449 0 0 0 .38.532l2.458.265a.534.534 0 0 0 .449-.467c.213-1.026 1.071-1.522 2.039-1.522.523 0 1.122.193 1.423.66.357.52.31 1.235.31 1.839v.32c-1.47.165-3.395.275-4.769.879-1.59.687-2.706 2.086-2.706 4.147 0 2.634 1.662 3.952 3.797 3.952 1.797 0 2.789-.425 4.181-1.844.463.674.613.99 1.455 1.691a.528.528 0 0 0 .6-.058c.505-.45 1.425-1.251 1.944-1.684.218-.155.182-.43.011-.663z"/></g><g><path fill="#232f3e" d="M47.826 2.582V.721a.45.45 0 0 1 .474-.47h8.336a.465.465 0 0 1 .48.47v1.596c0 .268-.224.618-.626 1.17l-4.32 6.166c1.604-.038 3.299.202 4.756 1.021.269.144.44.42.449.726v1.994c0 .273-.299.59-.615.426a9.601 9.601 0 0 0-8.809.016c-.29.155-.592-.157-.592-.431v-1.898a2.245 2.245 0 0 1 .31-1.277l5.004-7.185h-4.365a.465.465 0 0 1-.482-.47"/></g><g><path fill="#232f3e" d="M64.29.018c3.766 0 5.802 3.233 5.802 7.342 0 3.972-2.245 7.122-5.801 7.122-3.694 0-5.706-3.233-5.706-7.259 0-4.025 2.037-7.205 5.706-7.205zm.025 2.659c-1.87 0-1.99 2.546-1.99 4.136 0 1.59-.022 4.984 1.966 4.984 1.987 0 2.06-2.74 2.06-4.41 0-1.095-.046-2.411-.379-3.45-.285-.899-.853-1.26-1.657-1.26z"/></g><g><path fill="#232f3e" d="M75 14.19h-2.528a.474.474 0 0 1-.449-.466V.7a.478.478 0 0 1 .488-.427h2.353a.478.478 0 0 1 .449.364v1.991h.05C76.071.85 77.065 0 78.817 0c1.136 0 2.245.411 2.961 1.534.663 1.042.663 2.795.663 4.055v8.193a.483.483 0 0 1-.488.409h-2.55a.474.474 0 0 1-.45-.409v-7.07c0-1.424.167-3.508-1.587-3.508A1.666 1.666 0 0 0 75.9 4.246c-.355.795-.402 1.59-.402 2.47v7.008a.485.485 0 0 1-.494.467"/></g><g><path fill="#232f3e" d="M91.89 1.907a7.497 7.497 0 0 1 2.153-1.33 6.318 6.318 0 0 1 2.34-.449 5.47 5.47 0 0 1 2.315.467 4.737 4.737 0 0 1 1.753 1.383 6.445 6.445 0 0 1 1.105 2.21c.269.949.4 1.932.386 2.919a10.017 10.017 0 0 1-.413 2.977 6.778 6.778 0 0 1-1.156 2.26 5.233 5.233 0 0 1-1.81 1.451 5.35 5.35 0 0 1-2.365.497 5.93 5.93 0 0 1-4.12-1.572v6.233a.468.468 0 0 1-.532.532h-1.571a.469.469 0 0 1-.532-.532V1.056a.47.47 0 0 1 .532-.533h1.17a.56.56 0 0 1 .612.533zm3.75.345c-1.29.01-2.54.44-3.563 1.224v7.41c1.134.853 2.304 1.279 3.509 1.277 2.446 0 3.669-1.646 3.669-4.94 0-3.293-1.205-4.95-3.615-4.973z"/></g><g><path fill="#232f3e" d="M105.463 2.84l-.2.068a.704.704 0 0 1-.224.04c-.225 0-.346-.16-.346-.48v-.712a.9.9 0 0 1 .107-.519 1 1 0 0 1 .425-.28 9.607 9.607 0 0 1 2.099-.586c.824-.15 1.661-.225 2.5-.225 1.683 0 2.924.345 3.722 1.035s1.197 1.763 1.199 3.218v9.084a.472.472 0 0 1-.532.532h-1.146a.532.532 0 0 1-.583-.505l-.135-.878a7.26 7.26 0 0 1-2.113 1.276 6.258 6.258 0 0 1-2.301.449c-1.276 0-2.286-.36-3.032-1.078-.745-.719-1.12-1.68-1.122-2.885 0-1.294.46-2.326 1.383-3.099.922-.772 2.163-1.158 3.723-1.156a14.37 14.37 0 0 1 3.35.449V4.841c0-.958-.213-1.631-.638-2.02-.425-.39-1.17-.585-2.234-.587a13.692 13.692 0 0 0-3.902.607zm3.111 9.525a5.438 5.438 0 0 0 1.835-.343 6.964 6.964 0 0 0 1.835-1.01V8.296a13.42 13.42 0 0 0-1.397-.252c-.471-.062-.946-.093-1.421-.094-2.006 0-3.009.772-3.007 2.315 0 .673.187 1.192.56 1.556.372.364.904.545 1.595.543z"/></g><g><path fill="#232f3e" d="M123.398 16.37c-.48 1.224-1.035 2.102-1.663 2.635-.629.532-1.452.798-2.47.797a5.638 5.638 0 0 1-1.515-.187.772.772 0 0 1-.427-.253.9.9 0 0 1-.133-.544v-.691c0-.337.133-.506.4-.506.134.007.268.024.4.052.235.04.476.059.716.054a2.342 2.342 0 0 0 1.571-.478c.373-.32.71-.904 1.01-1.756l.506-1.347-5.124-12.666a2.025 2.025 0 0 1-.184-.64c0-.211.123-.319.37-.319h1.597c.205-.02.41.027.586.133.15.167.258.368.317.586l3.725 10.317 3.592-10.317c.058-.218.166-.419.316-.586a.962.962 0 0 1 .586-.133h1.49c.248 0 .372.108.372.319a2.03 2.03 0 0 1-.187.64l-5.85 14.89"/></g><g><path fill="#f90" d="M53.246 17.07c.61.778-.674 3.993-1.25 5.428-.176.434.199.609.592.28 2.553-2.137 3.213-6.614 2.694-7.26-.518-.647-4.984-1.195-7.71.72-.42.294-.348.7.119.645 1.533-.184 4.95-.595 5.56.186m-1.986 2.261c.789-.593.113-1.464-.691-1.123a42.852 42.852 0 0 1-16.42 3.368c-7.827 0-15.398-2.146-21.524-5.71-.536-.312-.936.239-.487.64a31.868 31.868 0 0 0 21.51 8.207c5.937 0 12.85-1.875 17.612-5.389"/></g></g></g></g></svg>