<svg xmlns="http://www.w3.org/2000/svg" width="45" height="45" viewBox="0 0 45 45"><defs><clipPath id="wyxpa"><path fill="#fff" d="M0 22.5C0 10.074 10.074 0 22.5 0S45 10.074 45 22.5 34.926 45 22.5 45 0 34.926 0 22.5z"/></clipPath></defs><g><g><g><path fill="#fff" d="M0 22.5C0 10.074 10.074 0 22.5 0S45 10.074 45 22.5 34.926 45 22.5 45 0 34.926 0 22.5z"/><path fill="none" stroke="#43d6a4" stroke-miterlimit="20" stroke-width="6" d="M0 22.5C0 10.074 10.074 0 22.5 0S45 10.074 45 22.5 34.926 45 22.5 45 0 34.926 0 22.5z" clip-path="url(&quot;#wyxpa&quot;)"/></g><g><path fill="none" stroke="#43d6a4" stroke-linecap="round" stroke-linejoin="round" stroke-miterlimit="20" stroke-width="3" d="M15.146 22.268v0l5.278 5.277v0l9.722-9.722v0"/></g></g></g></svg>