<svg xmlns="http://www.w3.org/2000/svg" width="51" height="30" viewBox="0 0 51 30"><g><g><g><path fill="#ffb600" d="M50.267 15.074c0 8.187-6.612 14.877-14.877 14.877-8.186 0-14.877-6.69-14.877-14.877C20.513 6.888 27.125.198 35.31.198c8.344 0 14.956 6.69 14.956 14.876z"/></g><g><path fill="#ff5050" d="M15.397.198C7.289.276.677 6.888.677 15.074c0 8.187 6.612 14.877 14.877 14.877 3.857 0 7.32-1.495 9.997-3.857.55-.472 1.023-1.023 1.495-1.574h-3.07a18.157 18.157 0 0 1-1.102-1.496h5.274c.315-.472.63-1.023.866-1.574h-7.006a9.382 9.382 0 0 1-.63-1.574h8.187c.472-1.496.787-3.07.787-4.723 0-1.102-.157-2.125-.315-3.148h-9.13c.078-.551.236-1.024.393-1.575h8.186a9.383 9.383 0 0 0-.63-1.574H21.93c.236-.551.55-1.023.866-1.574h5.273a7.486 7.486 0 0 0-1.18-1.575h-2.913c.473-.55.945-1.023 1.496-1.495-2.598-2.44-6.14-3.857-9.997-3.857 0-.157 0-.157-.078-.157z"/></g><g><g><path fill="#fff" d="M20.828 18.853l.236-1.338c-.079 0-.236.078-.394.078-.55 0-.63-.315-.55-.472l.472-2.755h.865l.237-1.496h-.788l.158-.944H19.49s-.945 5.195-.945 5.825c0 .944.551 1.338 1.26 1.338.472 0 .865-.158 1.023-.236z"/></g><g><path fill="#fff" d="M24.134 14.051c.866 0 .708 1.023.708 1.102H23.11c0-.079.158-1.102 1.024-1.102zm-2.755 2.283c0 2.204 1.495 2.755 2.755 2.755 1.18 0 1.653-.236 1.653-.236l.315-1.496s-.866.394-1.653.394c-1.732 0-1.417-1.26-1.417-1.26h3.227s.236-1.023.236-1.417c0-1.023-.55-2.282-2.283-2.282-1.653-.158-2.833 1.574-2.833 3.542z"/></g><g><path fill="#fff" d="M34.13 18.853l.315-1.732s-.787.393-1.338.393c-1.102 0-1.574-.865-1.574-1.81 0-1.89.944-2.912 2.046-2.912.787 0 1.417.472 1.417.472l.236-1.653s-.944-.394-1.81-.394c-1.81 0-3.62 1.575-3.62 4.566 0 1.968.944 3.306 2.833 3.306.63 0 1.495-.236 1.495-.236z"/></g><g><path fill="#fff" d="M12.484 16.176c0 .236-.157 1.496-1.102 1.496-.472 0-.63-.394-.63-.63 0-.393.237-.944 1.417-.944.236.078.315.078.315.078zm-.315-3.542c-1.102 0-1.889.315-1.889.315l-.236 1.338s.708-.315 1.732-.315c.55 0 1.023.08 1.023.551 0 .315-.079.394-.079.394h-.708c-1.338 0-2.834.55-2.834 2.361 0 1.417.945 1.732 1.496 1.732 1.102 0 1.574-.708 1.653-.708l-.079.63h1.417l.63-4.33c0-1.89-1.575-1.968-2.126-1.968z"/></g><g><path fill="#fff" d="M15.79 19.01c.394 0 2.361.079 2.361-2.047 0-1.967-1.889-1.574-1.889-2.36 0-.395.315-.552.866-.552.236 0 1.102.079 1.102.079l.236-1.417s-.55-.157-1.495-.157c-1.18 0-2.362.472-2.362 2.046 0 1.81 1.968 1.653 1.968 2.361 0 .473-.55.551-.944.551-.709 0-1.417-.236-1.417-.236l-.236 1.417c.078.158.472.315 1.81.315z"/></g><g><path fill="#fff" d="M46.488 15.547c0 .865-.393 1.967-1.259 1.967-.551 0-.866-.472-.866-1.259 0-1.26.551-2.046 1.26-2.046.55 0 .865.393.865 1.338zm.709-4.172l-.315 2.125s-.63-.787-1.496-.787c-1.417 0-2.676 1.732-2.676 3.778 0 1.26.63 2.598 1.968 2.598.945 0 1.496-.63 1.496-.63l-.08.551h1.575l1.18-7.556z"/></g><g><path fill="#fff" d="M3.59 18.931l.944-5.667.157 5.667h1.102l2.047-5.667-.866 5.667h1.653l1.26-7.556H7.289l-1.574 4.644-.079-4.644H3.353l-1.26 7.556z"/></g><g><path fill="#fff" d="M27.99 18.931c.473-2.597.552-4.722 1.654-4.329.157-1.023.393-1.417.55-1.81h-.314c-.709 0-1.26.944-1.26.944l.158-.866h-1.496l-1.023 6.14h1.732z"/></g><g><path fill="#fff" d="M38.145 16.176c0 .236-.158 1.496-1.102 1.496-.473 0-.63-.394-.63-.63 0-.393.236-.944 1.417-.944.236.078.236.078.315.078zm-.394-3.542c-1.102 0-1.889.315-1.889.315l-.236 1.338s.708-.315 1.732-.315c.55 0 1.023.08 1.023.551 0 .315-.079.394-.079.394h-.708c-1.338 0-2.834.55-2.834 2.361 0 1.417.945 1.732 1.496 1.732 1.102 0 1.574-.708 1.653-.708l-.08.63h1.418l.63-4.33c.078-1.89-1.575-1.968-2.126-1.968z"/></g><g><path fill="#fff" d="M41.215 18.931c.472-2.597.55-4.722 1.653-4.329.157-1.023.393-1.417.55-1.81h-.314c-.709 0-1.26.944-1.26.944l.158-.866h-1.496l-1.023 6.14h1.732z"/></g></g></g></g></svg>