<svg xmlns="http://www.w3.org/2000/svg" width="58" height="57" viewBox="0 0 58 57"><defs><clipPath id="n8xua"><path fill="#fff" d="M1 28.5C1 12.76 13.76 0 29.5 0S58 12.76 58 28.5 45.24 57 29.5 57 1 44.24 1 28.5z"/></clipPath></defs><g><g><g><path fill="#fff" d="M1 28.5C1 12.76 13.76 0 29.5 0S58 12.76 58 28.5 45.24 57 29.5 57 1 44.24 1 28.5z"/><path fill="none" stroke="#f0f0f0" stroke-miterlimit="20" stroke-width="2" d="M1 28.5C1 12.76 13.76 0 29.5 0S58 12.76 58 28.5 45.24 57 29.5 57 1 44.24 1 28.5z" clip-path="url(&quot;#n8xua&quot;)"/></g><g><g><path fill="none" stroke="#000" stroke-linecap="round" stroke-miterlimit="20" stroke-width="2" d="M20.42 28.813h17.236"/></g></g></g></g></svg>