<svg xmlns="http://www.w3.org/2000/svg" width="101" height="26" viewBox="0 0 101 26"><g><g><g><path fill="#139ad6" d="M78.65 12.249c-.319 1.912-1.752 1.912-3.186 1.912h-.956l.637-3.665c0-.159.16-.318.478-.318h.319c.956 0 1.912 0 2.39.637.318.16.318.637.318 1.434m-.637-5.258h-5.417c-.319 0-.638.319-.797.638l-2.23 14.02c0 .319.159.478.478.478h2.867c.32 0 .478-.16.478-.478l.638-3.983c0-.319.318-.637.796-.637h1.753c3.664 0 5.736-1.753 6.214-5.258.318-1.434 0-2.708-.638-3.505-.956-.797-2.39-1.275-4.142-1.275"/></g><g><g><path fill="#263b80" d="M39.615 12.249c-.318 1.912-1.752 1.912-3.186 1.912h-.797l.637-3.665c0-.159.16-.318.478-.318h.32c.955 0 1.911 0 2.389.637.16.16.319.637.16 1.434m-.638-5.258h-5.417c-.319 0-.637.319-.797.638l-2.23 14.02c0 .319.16.478.478.478h2.549c.319 0 .637-.318.797-.637l.637-3.824c0-.319.319-.637.797-.637h1.752c3.665 0 5.736-1.753 6.214-5.258.318-1.434 0-2.708-.638-3.505-.955-.797-2.23-1.275-4.142-1.275"/></g><g><path fill="#263b80" d="M51.724 17.188c-.319 1.434-1.434 2.55-3.027 2.55-.797 0-1.434-.32-1.753-.638-.318-.478-.478-1.115-.478-1.912.16-1.434 1.434-2.55 2.868-2.55.797 0 1.275.32 1.753.638.478.478.637 1.275.637 1.912m3.665-5.098h-2.55c-.159 0-.478.159-.478.318l-.159.797-.16-.319c-.637-.796-1.752-1.115-3.026-1.115-2.868 0-5.418 2.23-5.896 5.258-.318 1.593.16 3.027.956 3.983.797.956 1.912 1.275 3.346 1.275 2.39 0 3.665-1.434 3.665-1.434l-.16.796c0 .319.16.478.478.478h2.39c.319 0 .638-.318.797-.637l1.434-8.922c-.16-.16-.478-.478-.637-.478"/></g></g><g><path fill="#139ad6" d="M90.6 17.188c-.32 1.434-1.434 2.55-3.028 2.55-.796 0-1.434-.32-1.752-.638-.319-.478-.478-1.115-.478-1.912.16-1.434 1.434-2.55 2.868-2.55.796 0 1.274.32 1.752.638.638.478.797 1.275.638 1.912m3.664-5.098h-2.55c-.158 0-.477.159-.477.318l-.16.797-.159-.319c-.637-.796-1.752-1.115-3.027-1.115-2.868 0-5.417 2.23-5.895 5.258-.319 1.593.16 3.027.956 3.983.797.956 1.912 1.275 3.346 1.275 2.39 0 3.664-1.434 3.664-1.434l-.159.796c0 .319.16.478.478.478h2.39c.318 0 .637-.318.796-.637l1.434-8.922c-.159-.16-.318-.478-.637-.478"/></g><g><path fill="#263b80" d="M69.25 12.09H66.54c-.318 0-.478.16-.637.318l-3.505 5.417-1.593-5.098c-.16-.319-.319-.478-.797-.478h-2.55c-.318 0-.477.319-.477.637l2.868 8.445-2.709 3.823c-.16.32 0 .797.319.797h2.549c.319 0 .478-.16.637-.319l8.763-12.586c.478-.478.16-.956-.16-.956"/></g><g><path fill="#139ad6" d="M97.291 7.47l-2.23 14.339c0 .318.159.478.478.478h2.23c.319 0 .638-.32.797-.638l2.23-14.02c0-.32-.159-.478-.478-.478H97.77c-.16-.16-.318 0-.478.318"/></g><g><path fill="#263b80" d="M18.744 2.211C17.628.937 15.557.3 12.689.3H4.723c-.478 0-.956.478-1.115.956L.42 22.127c0 .478.319.797.637.797h4.94l1.274-7.807v.319c.16-.478.637-.956 1.115-.956h2.39c4.62 0 8.126-1.912 9.241-7.17v-.478c-.16 0-.16 0 0 0 .16-2.071-.16-3.346-1.274-4.62"/></g><g><path fill="#139ad6" d="M19.859 6.832v.478c-1.115 5.417-4.62 7.17-9.241 7.17h-2.39c-.478 0-.956.478-1.115.956L5.52 25.154c0 .32.159.638.637.638h4.142c.478 0 .956-.319.956-.797v-.16l.797-4.938v-.319c0-.478.478-.797.956-.797h.637c3.983 0 7.17-1.593 7.966-6.373.32-1.912.16-3.664-.796-4.78a1.632 1.632 0 0 0-.956-.796"/></g><g><path fill="#232c65" d="M18.744 6.354c-.16 0-.319-.16-.478-.16-.16 0-.319 0-.478-.159-.638-.159-1.275-.159-2.072-.159H9.503c-.16 0-.319 0-.478.16a.876.876 0 0 0-.478.796l-1.275 8.285v.318c.16-.477.637-.955 1.115-.955h2.39c4.62 0 8.126-1.912 9.241-7.17 0-.16 0-.319.16-.478-.32-.16-.478-.319-.797-.319-.478-.16-.478-.16-.637-.16"/></g></g></g></svg>