<svg xmlns="http://www.w3.org/2000/svg" width="29" height="29" viewBox="0 0 29 29"><g><g><path fill="#ff4d4d" d="M14.242 24.862c-2.127 0-4.14-.645-5.773-1.785L22.674 8.873c1.139 1.633 1.785 3.646 1.785 5.773a10.195 10.195 0 0 1-10.217 10.216zM4.026 14.646c0-5.659 4.595-10.254 10.216-10.254 2.127 0 4.14.645 5.773 1.785L5.811 20.419c-1.14-1.633-1.785-3.646-1.785-5.773zM14.242.404C6.381.404 0 6.784 0 14.646c0 7.862 6.38 14.242 14.242 14.242 7.862 0 14.242-6.38 14.242-14.242 0-7.862-6.38-14.242-14.242-14.242z"/></g></g></svg>