<svg xmlns="http://www.w3.org/2000/svg" width="65" height="21" viewBox="0 0 65 21"><g><g><g><g><g><path fill="#2394bc" d="M18.843.712h5.53l-8.217 20.322h-5.529L5.94 3.545c3.312 1.698 6.28 5.116 7.227 8.261l.558 2.726L18.844.71zM54.76 12.944zm0 0h3.696l-1.592-6.59s-1.993 6.58-2.104 6.59zm10.234 8.126h-4.836l-.784-4.053h-6.136l-1.51 4.037h-5.484L54.005 2.41c.54-1.278 1.486-1.636 2.732-1.636h4.043zM42.241 8.997c3.013 1.404 4.407 3.123 4.39 5.366-.046 4.09-3.614 6.732-9.098 6.732-2.343-.025-4.6-.505-5.828-1.05l.73-4.424.689.313c1.7.735 2.819 1.049 4.903 1.049 1.505 0 3.117-.609 3.14-1.928 0-.859-.689-1.486-2.71-2.453-1.98-.942-4.623-2.514-4.58-5.345.022-3.838 3.656-6.52 8.816-6.52 2.021 0 3.658.439 4.69.838l-.71 4.256-.475-.211c-.946-.397-2.194-.796-3.892-.754-2.064 0-2.988.86-3.01 1.698 0 .922 1.119 1.531 2.945 2.433zM31.703.71l-3.268 20.344H23.21L26.479.71z"/></g></g></g><g><path fill="#efc75e" d="M11.444 3.334c-.4-1.552-1.672-2.598-3.4-2.62H-.064l-.083.376c6.325 1.56 11.633 6.357 13.356 10.87z"/></g></g></g></svg>